<svg xmlns="http://www.w3.org/2000/svg" width="793.7" height="1122.52">
  <path fill="#fff" d="M221.13 215.23c-25.87 0-46.9 21.03-46.9 46.9v359.64c0 25.82 21.03 46.8 46.9 46.8h359.64c25.82 0 46.8-20.98 46.8-46.8V262.13c0-25.87-20.98-46.9-46.8-46.9H221.13z"/>
  <path fill="#00ff7f" d="M580.77 678.14c31.17 0 56.4-25.2 56.4-56.37V262.13c0-31.17-25.23-56.47-56.4-56.47H221.13c-31.18 0-56.47 25.3-56.47 56.47v359.64c0 31.17 25.3 56.37 56.47 56.37h359.64z"/>
  <path d="M524.92 326.48c-3.73-18.55-15.58-25.96-33.42-33.37-17.83-7.4-59.57-16.3-90.7-16.3-31.17 0-72.9 8.9-90.74 16.3-17.84 7.5-29.7 14.9-33.42 33.4l-13.4 102.9v141.8h23.1v22.26c0 27.06 39.7 27.06 39.7 0V571.2h149.6v22.23c0 27.04 39.58 27.04 39.58 0v-22.25h23.04v-141.8l-13.34-102.9zm-186.37-26.96h124.4c12.25 0 12.25 23.2 0 23.2h-124.4c-12.2 0-12.2-23.2 0-23.2m-32.4 229.06c-11.54 0-20.9-9.32-20.9-20.94 0-11.52 9.36-20.9 20.9-20.9 11.56 0 20.93 9.38 20.93 20.9 0 11.62-9.37 20.94-20.94 20.94m189.28 0c-11.57 0-21-9.32-21-20.94 0-11.52 9.43-20.9 21-20.9 11.48 0 20.85 9.38 20.85 20.9 0 11.62-9.37 20.94-20.85 20.94m8.23-88.35H298.2c-5.98 0-10.95-4.97-10.95-10.95 0-1 .2-1.96.38-2.87l10.95-81.1c.9-5.02 5.4-9 10.7-9H492.5c5.3 0 9.8 3.9 10.77 9l10.9 81.18c.2.93.4 1.88.4 2.9 0 5.97-4.94 10.94-10.9 10.94"/>
</svg>
