<?xml version="1.0"?><svg width="793.7007874015749" height="1122.5196850393702" xmlns="http://www.w3.org/2000/svg">
 <title>Bus Station Icon Black Blue</title>
 <defs>
  <pattern height="100" width="100" y="0" x="0" patternUnits="userSpaceOnUse" id="gridpattern">
   <image height="100" width="100" y="0" x="0"/>
  </pattern>
 </defs>
 <metadata id="metadata18081">image/svg+xmlPublic Domainclker.comMohamed Ibrahimmap symbolsmap symbolsimage/svg+xmlMap SymbolsMohamed IbrahimPublic Domain Licenseclker.commap symbols</metadata>
 <g>
  <title>Layer 1</title>
  <path fill="#ffffff" fill-rule="nonzero" id="path6760" d="m221.126999,215.225006c-25.865997,0 -46.903,21.036987 -46.903,46.903992l0,359.639984c0,25.817993 21.037003,46.808044 46.903,46.808044l359.64003,0c25.81897,0 46.807983,-20.990051 46.807983,-46.808044l0,-359.639984c0,-25.867004 -20.989014,-46.903992 -46.807983,-46.903992l-359.64003,0z"/>
  <path fill="#00ff7f" fill-rule="nonzero" id="path6762" d="m580.767029,678.138977c31.17395,0 56.417969,-25.19696 56.417969,-56.369995l0,-359.639984c0,-31.173996 -25.244019,-56.466003 -56.417969,-56.466003l-359.640045,0c-31.173004,0 -56.466003,25.292007 -56.466003,56.466003l0,359.639984c0,31.173035 25.292999,56.369995 56.466003,56.369995l359.640045,0z"/>
  <path fill="#000000" fill-rule="nonzero" id="path6764" d="m524.922974,326.483002c-3.729004,-18.550995 -15.586975,-25.960999 -33.419983,-33.372009c-17.833984,-7.458984 -59.574005,-16.303986 -90.699005,-16.303986c-31.173981,0 -72.912994,8.845001 -90.746979,16.303986c-17.834015,7.411011 -29.69101,14.821014 -33.421021,33.372009l-13.386993,102.890991l0,141.761993l23.093018,0l0,22.233032c0,27.060974 39.68399,27.060974 39.68399,0l0,-22.233032l149.602997,0l0,22.233032c0,27.060974 39.587982,27.060974 39.587982,0l0,-22.233032l23.046021,0l0,-141.761993l-13.340027,-102.890991zm-186.369965,-26.966003l124.406006,0c12.23999,0 12.23999,23.188995 0,23.188995l-124.406006,0c-12.192017,0 -12.192017,-23.188995 0,-23.188995m-32.417023,229.066986c-11.521973,0 -20.893982,-9.323975 -20.893982,-20.941986c0,-11.522003 9.372009,-20.894012 20.893982,-20.894012c11.571014,0 20.942017,9.372009 20.942017,20.894012c0,11.618011 -9.371002,20.941986 -20.942017,20.941986m189.287018,0c-11.570007,0 -20.989014,-9.323975 -20.989014,-20.941986c0,-11.522003 9.419006,-20.894012 20.989014,-20.894012c11.475006,0 20.845978,9.372009 20.845978,20.894012c0,11.618011 -9.370972,20.941986 -20.845978,20.941986m8.223999,-88.355988l-205.446991,0c-5.97702,0 -10.949005,-4.972992 -10.949005,-10.949005c0,-1.003998 0.190979,-1.960999 0.381989,-2.868988l10.949005,-81.136993c0.90799,-5.068024 5.402985,-8.988007 10.709991,-8.988007l183.214996,0c5.307007,0 9.801025,3.919983 10.757019,8.988007l10.90097,81.136993c0.192017,0.90799 0.382996,1.86499 0.382996,2.868988c0,5.976013 -4.924988,10.949005 -10.90097,10.949005"/>
 </g>
</svg>