<svg xmlns="http://www.w3.org/2000/svg" width="500.08" height="486.75">
  <path fill="#f19bbc" stroke="#000" stroke-width="5.71" d="M373.9 214.26c1 4.94 36-36.28 29.33-72.98-8.4-46.34-51.86-85.1-93.83-89.27-22.06-2.2-44.48-.8-66.47 2-17.24 2.2-33.5 10.3-50.82 11.8-11.7 1-33.4-.2-35.3-1.9-5-4.5-2.9-6.3.2-7.8 2.4-1.1 16.8-5.2 25.4-6.5 16.3-2.5 27-14.5 39.1-22.1 33-20.8 82.8-28 124.5-22.9 77.35 9.46 122.9 62.1 143.37 121.2 22.1 63.95-5.3 144.37-42.35 182.45l-25.4 26" stroke-linejoin="round"/>
  <path fill="#f19bbc" stroke="#000" stroke-width="5.71" d="M404.3 350.12c5.74 2.5-27.57 71.18-73.7 81.55-57.28 12.88-138.3 24.6-192.6 2.3-41.5-17.04-65.06-35.95-69.12-80.62-5.8-63.7 19.9-87.5 52.06-114.73 29-24.56 63.63-48.33 101.37-57.14 39.8-9.26 80.1-12.02 125.8 6 42 16.53 74.5 57.58 92.2 99.06 13.7 31.97 12.4 70.36 4.2 104.13-6 24.48-18.7 63.36-36.8 64.96-19.3 1.72-40.3-20.8-44.2-41.52"/>
  <path fill="#f19bbc" stroke="#000" stroke-width="5.71" stroke-dashoffset="1.5" d="M57.13 295.06s-13.35-7.92-16.6-14.5c-4.34-8.85-5.47-20.35-1.83-29.5 3.5-8.8 11.82-16.2 20.73-19.35 8.06-2.8 22.6-3.8 31.1.3 7.56 3.7 6.7 15.2 7.6 20.5m233.84 130.4c6.93 17.5 12.84 72.1 6 91.7-2.74 7.8-14.82 10-23.05 9.2-10.73-1-18.67-10.9-27.18-17.5-8.94-6.9-16.58-15.3-24.9-23l-17.04-15.6" stroke-linecap="round" stroke-linejoin="round"/>
  <path fill="#fafcfa" stroke="#000" stroke-width="5.71" stroke-dashoffset="1.5" d="M384.72 448.26c.04-8.17 11-12.83 19.13-13.6 8.1-.75 21.42 2.7 21.88 10.84.3 5.14-11.7 9.87-19.35 10.6-7.64.72-21.67-5.1-21.66-7.84zm-77.35 10.16c-2.18.13-4.24.8-6.05 2.28-3.2 2.66-3.73 8.46-3.3 14.25 5.13 4.35 10.47 8.17 16.87 8.78 8.2.8 20.3-1.43 23.1-9.23.4-1.2.7-2.53 1-4v-.05c-3.9-2.22-7.6-4.17-10.8-5.36-6.6-2.5-14.4-7.1-21-6.7z" stroke-linecap="round" stroke-linejoin="round"/>
  <path fill="#f19bbc" stroke="#000" stroke-width="5.71" stroke-dashoffset="1.5" d="M164.7 432.6s-64.64 31.76-99.5 39.16c-13.85 2.94-35.63 3.94-41.5-2.76-7.08-8.12 2.5-24.72 6.9-38.7 12.26-38.88 59-111.05 59-111.05" stroke-linecap="round" stroke-linejoin="round"/>
  <path fill="#fafcfa" stroke="#000" stroke-width="5.71" stroke-dashoffset="1.5" d="M25.95 463.17c6.93-1.74 19.3-.85 20.52 6.2 1.16 6.64-9.66 10.74-16.3 12.04-6.03 1.2-16.27 1.4-17.9-4.5-1.7-6.2 7.42-12.1 13.68-13.7z" stroke-linecap="round" stroke-linejoin="round"/>
  <path fill="#f19bbc" stroke="#000" stroke-width="5.71" stroke-dashoffset="1.5" d="M286.6 357.6s7.7-61.62-24.77-88.6c-21-17.46-46.2-31.8-72.98-37.15-27.77-5.54-58.6-4.47-84.7 6.52-21.57 9.07-39.97 26.27-52.14 46.26-10.3 17-13.9 42.48-11.4 62.23 1.7 13 15.4 30.3 15.4 30.3" stroke-linecap="round" stroke-linejoin="round"/>
  <path fill="#f19bbc" stroke="#000" stroke-width="5.71" stroke-dashoffset="1.5" d="M222.08 275.18s-1.84-23.7 16.3-32.58c17.76-8.68 37.65-1 50.17 11.4 10.1 10 13.52 25.26 9.12 39.1-3.95 12.4-22.8 21.37-33.56 19.22-12.9-2.6-22.2-15.76-22.8-29-.5-11.8 10.9-20.75 25.1-20.84 12.7-.1 14.7 16.3 14.7 16.3" stroke-linecap="round" stroke-linejoin="round"/>
  <path fill="#fafcfa" stroke="#000" stroke-width="5.71" stroke-dashoffset="1.5" d="M148.45 299.3c-7.47 16.3-3.17 42.96 12.05 52.44 16.1 10.03 45.58 3.6 54.1-13.35 4.08-8.2 3.42-24.8-1-34.6-5.8-13-23.27-20.2-37.46-20.2-10.93-.1-23.14 5.7-27.7 15.6zm-80.9-23.22c-4.15-.05-9.1 2.3-13.16 4.8-.1 0 0 .04 0 .05-.9 1.23-1.7 2.46-2.4 3.7-7 11.37-10.8 26.5-11.9 41.17 1 1.15 2.2 2.16 3.7 2.8 7.3 3.15 15.7-1.75 21.5-7.13 5.1-4.75 7.1-12.4 8.4-19.27 1.5-7.9 3.7-19.43-1-24.06-1.5-1.43-3.3-2.03-5.3-2.06z" stroke-linecap="round" stroke-linejoin="round"/>
  <path d="M184.02 311.75c0 3.08-2.4 5.58-5.35 5.58-2.96 0-5.35-2.5-5.35-5.58s2.4-5.58 5.35-5.58c2.95 0 5.35 2.5 5.35 5.58zM64.98 298c0 2.73-1.58 4.96-3.52 4.96s-3.52-2.23-3.52-4.97c0-2.8 1.58-5 3.52-5s3.52 2.2 3.52 4.9z"/>
  <path fill="#720006" stroke="#000" stroke-width="5.71" stroke-dashoffset="1.5" d="M85.24 370.64s-24.74 20.67-29 33.88c-8.02 24.94 14.62 40.66 26.07 46.92 13.4 7.3 53.3-5.55 67.8-10.1 16.5-5.16 28.4-15 40.1-27.7 7-7.54 16.3-24.1 16.3-24.1" stroke-linecap="round" stroke-linejoin="round"/>
  <path fill="#e68fa9" stroke="#000" stroke-width="5.71" stroke-dashoffset="1.5" d="M103.16 377.48s-26.7 20.2-29 33.9c-2.15 12.86 8.75 27.28 20.2 33.54 13.35 7.3 31.1 3.25 45.62-1.3 16.47-5.16 31.64-15.65 43.33-28.34 7-7.55 14.7-27.05 14.7-27.05" stroke-linecap="round" stroke-linejoin="round"/>
  <path fill="#fafcfa" stroke="#000" stroke-width="5.71" stroke-dashoffset="1.5" d="M133.14 398s.92 23.66 9.45 23.8c6.3.1 9.4-22.16 9.4-22.16m-102.6-20.2s.6 22.24 4.9 22.15C58.5 401.5 66 382 66 382m-47.87-3.9s1.23 13.12 4.9 18.25c2.8 3.95 7.37 9.46 12.04 8.14 6.32-1.8 2.02-23.6 2.6-24.5" stroke-linecap="round" stroke-linejoin="round"/>
  <path fill="#f2f5cf" stroke="#000" stroke-width="5.71" stroke-dashoffset="1.5" d="M100.3 311.43c-10.72.16-20.68 1.9-31.37 3.03-22.56 2.4-35.32 10.27-48.35 20.98-8.9 7.3-18.46 21.15-17.67 32.84.7 9.6 2.5 15.75 13.4 23.94 2.7 2.02 16.5-3.18 24.3-4.1 8.9-1.05 17.9-2.53 25.6-.5-2.9 5.5-6.4 11.5-11.12 16.18-3.83 3.74-9.5 14.56-3.82 27.77 3.75 8.65 14.36 24.83 33.6 30.95 17.87 5.7 50.98 6.55 61.24 4.22 24.3-5.52 64.8-40.7 78.03-65 0 0 .9-5.7 1.16-8.6.34-4.77 1.1-9.67.25-14.37-1.1-6.1-2.1-13-7.13-16.6-27-19.2-74.5-44.24-97.44-48.85-7.33-1.48-14-1.98-20.5-1.9zm-33.25 76.7c8.56 3.6 14.43 7.57 22.12 10.14 25 8.35 49.86 11.22 77.83 5.07 6.5-1.43 13.98-4.48 21.04-5.53 2.42-.3 4.8-.4 7.07-.2 3 .4 8.1 4.2 8.1 4.2-5.7-4.8-10.5-4.9-15.1-3.9 0 0-9.1 17.9-13.4 24-18.8 26.7-87.2 32.7-115.9 5.1-8.8-8.5-.6-27.5 8.4-38.7z" stroke-linecap="round" stroke-linejoin="round"/>
  <path fill="none" stroke="#000" stroke-width="4.56" stroke-dashoffset="1.5" d="M35.6 360.5c4.94 3.22 7.37 7.83 8.97 12.9m35.83-.8c1.73.77 12-8.16 11.4-9.12" stroke-linecap="round" stroke-linejoin="round"/>
  <path fill="#eefcee" d="M275.67 9.42c-19.65 3.9-38.15 10.4-53.03 19.73-11.74 7.36-22.8 19.9-39.96 22.52-4.17.64-9.9 1.94-14.83 3.25-2.46.66-4.84 1.13-6.64 1.6-6.3 1.64-8.3 5.26.6 6.16 2.4.24 5.6.6 9.1.8 7.1.4 15.4.43 21.1-.06 16.8-1.44 33-9.46 50.8-11.75 11.1-1.42 22.2-2.44 33.4-2.85.2-3.43.2-6.74 0-9.46-.6-6.14-5.6-11.57-5.3-17.74.2-3.57 2.2-7.86 5-12.2z"/>
</svg>
